<svg xmlns="http://www.w3.org/2000/svg" viewBox="0 0 1024 1024" width="1024" height="1024">
<defs>
<linearGradient id="bg" x1="0" y1="0" x2="0.4" y2="1"><stop offset="0" stop-color="#ffb347"/><stop offset="0.45" stop-color="#ff4f7a"/><stop offset="1" stop-color="#5a23d9"/></linearGradient>
<linearGradient id="rim" x1="0" y1="0" x2="0" y2="1"><stop offset="0" stop-color="#fff" stop-opacity=".75"/><stop offset=".5" stop-color="#fff" stop-opacity=".12"/><stop offset="1" stop-color="#fff" stop-opacity=".45"/></linearGradient>
<linearGradient id="sheen" x1="0" y1="0" x2="0" y2="1"><stop offset="0" stop-color="#fff" stop-opacity=".55"/><stop offset=".45" stop-color="#fff" stop-opacity=".06"/><stop offset="1" stop-color="#fff" stop-opacity="0"/></linearGradient>
<linearGradient id="glass" x1="0" y1="0" x2="1" y2="1"><stop offset="0" stop-color="#fff" stop-opacity=".34"/><stop offset="1" stop-color="#fff" stop-opacity=".10"/></linearGradient>
<filter id="drop" x="-20%" y="-20%" width="140%" height="150%"><feGaussianBlur in="SourceAlpha" stdDeviation="18"/><feOffset dy="22"/><feComponentTransfer><feFuncA type="linear" slope=".35"/></feComponentTransfer><feMerge><feMergeNode/><feMergeNode in="SourceGraphic"/></feMerge></filter>
<filter id="soft" x="-100%" y="-100%" width="300%" height="300%"><feGaussianBlur stdDeviation="60"/></filter>
<filter id="blur8"><feGaussianBlur stdDeviation="8"/></filter>
<filter id="glow" x="-50%" y="-50%" width="200%" height="200%"><feGaussianBlur stdDeviation="14" result="b"/><feMerge><feMergeNode in="b"/><feMergeNode in="SourceGraphic"/></feMerge></filter>
<clipPath id="plate"><rect x="100" y="100" width="824" height="824" rx="185"/></clipPath>
<radialGradient id="scr" cx=".5" cy=".45" r=".7"><stop offset="0" stop-color="#15384a"/><stop offset="1" stop-color="#03070f"/></radialGradient>
<clipPath id="scrclip"><rect x="290" y="330" width="360" height="300" rx="60"/></clipPath>
</defs>
<g filter="url(#drop)"><rect x="100" y="100" width="824" height="824" rx="185" fill="url(#bg)"/></g>
<g clip-path="url(#plate)"><circle cx="820" cy="820" r="260" fill="#2a1bff" opacity=".45" filter="url(#soft)"/><circle cx="200" cy="180" r="220" fill="#ffe36a" opacity=".55" filter="url(#soft)"/><g filter="url(#drop)"><rect x="236" y="276" width="552" height="420" rx="96" fill="url(#glass)" stroke="url(#rim)" stroke-width="6"/><rect x="290" y="330" width="360" height="300" rx="60" fill="url(#scr)"/><g clip-path="url(#scrclip)"><rect x="422" y="424" width="16" height="16" fill="#47fff0" filter="url(#glow)"/><rect x="422" y="440" width="16" height="16" fill="#47fff0" filter="url(#glow)"/><rect x="438" y="440" width="16" height="16" fill="#47fff0" filter="url(#glow)"/><rect x="454" y="440" width="16" height="16" fill="#47fff0" filter="url(#glow)"/><rect x="422" y="456" width="16" height="16" fill="#47fff0" filter="url(#glow)"/><rect x="438" y="456" width="16" height="16" fill="#47fff0" filter="url(#glow)"/><rect x="454" y="456" width="16" height="16" fill="#47fff0" filter="url(#glow)"/><rect x="470" y="456" width="16" height="16" fill="#47fff0" filter="url(#glow)"/><rect x="486" y="456" width="16" height="16" fill="#47fff0" filter="url(#glow)"/><rect x="422" y="472" width="16" height="16" fill="#47fff0" filter="url(#glow)"/><rect x="438" y="472" width="16" height="16" fill="#47fff0" filter="url(#glow)"/><rect x="454" y="472" width="16" height="16" fill="#47fff0" filter="url(#glow)"/><rect x="470" y="472" width="16" height="16" fill="#47fff0" filter="url(#glow)"/><rect x="486" y="472" width="16" height="16" fill="#47fff0" filter="url(#glow)"/><rect x="502" y="472" width="16" height="16" fill="#47fff0" filter="url(#glow)"/><rect x="518" y="472" width="16" height="16" fill="#47fff0" filter="url(#glow)"/><rect x="422" y="488" width="16" height="16" fill="#47fff0" filter="url(#glow)"/><rect x="438" y="488" width="16" height="16" fill="#47fff0" filter="url(#glow)"/><rect x="454" y="488" width="16" height="16" fill="#47fff0" filter="url(#glow)"/><rect x="470" y="488" width="16" height="16" fill="#47fff0" filter="url(#glow)"/><rect x="486" y="488" width="16" height="16" fill="#47fff0" filter="url(#glow)"/><rect x="422" y="504" width="16" height="16" fill="#47fff0" filter="url(#glow)"/><rect x="438" y="504" width="16" height="16" fill="#47fff0" filter="url(#glow)"/><rect x="454" y="504" width="16" height="16" fill="#47fff0" filter="url(#glow)"/><rect x="422" y="520" width="16" height="16" fill="#47fff0" filter="url(#glow)"/><rect x="290" y="330" width="360" height="3" fill="#000" opacity=".35"/><rect x="290" y="338" width="360" height="3" fill="#000" opacity=".35"/><rect x="290" y="346" width="360" height="3" fill="#000" opacity=".35"/><rect x="290" y="354" width="360" height="3" fill="#000" opacity=".35"/><rect x="290" y="362" width="360" height="3" fill="#000" opacity=".35"/><rect x="290" y="370" width="360" height="3" fill="#000" opacity=".35"/><rect x="290" y="378" width="360" height="3" fill="#000" opacity=".35"/><rect x="290" y="386" width="360" height="3" fill="#000" opacity=".35"/><rect x="290" y="394" width="360" height="3" fill="#000" opacity=".35"/><rect x="290" y="402" width="360" height="3" fill="#000" opacity=".35"/><rect x="290" y="410" width="360" height="3" fill="#000" opacity=".35"/><rect x="290" y="418" width="360" height="3" fill="#000" opacity=".35"/><rect x="290" y="426" width="360" height="3" fill="#000" opacity=".35"/><rect x="290" y="434" width="360" height="3" fill="#000" opacity=".35"/><rect x="290" y="442" width="360" height="3" fill="#000" opacity=".35"/><rect x="290" y="450" width="360" height="3" fill="#000" opacity=".35"/><rect x="290" y="458" width="360" height="3" fill="#000" opacity=".35"/><rect x="290" y="466" width="360" height="3" fill="#000" opacity=".35"/><rect x="290" y="474" width="360" height="3" fill="#000" opacity=".35"/><rect x="290" y="482" width="360" height="3" fill="#000" opacity=".35"/><rect x="290" y="490" width="360" height="3" fill="#000" opacity=".35"/><rect x="290" y="498" width="360" height="3" fill="#000" opacity=".35"/><rect x="290" y="506" width="360" height="3" fill="#000" opacity=".35"/><rect x="290" y="514" width="360" height="3" fill="#000" opacity=".35"/><rect x="290" y="522" width="360" height="3" fill="#000" opacity=".35"/><rect x="290" y="530" width="360" height="3" fill="#000" opacity=".35"/><rect x="290" y="538" width="360" height="3" fill="#000" opacity=".35"/><rect x="290" y="546" width="360" height="3" fill="#000" opacity=".35"/><rect x="290" y="554" width="360" height="3" fill="#000" opacity=".35"/><rect x="290" y="562" width="360" height="3" fill="#000" opacity=".35"/><rect x="290" y="570" width="360" height="3" fill="#000" opacity=".35"/><rect x="290" y="578" width="360" height="3" fill="#000" opacity=".35"/><rect x="290" y="586" width="360" height="3" fill="#000" opacity=".35"/><rect x="290" y="594" width="360" height="3" fill="#000" opacity=".35"/><rect x="290" y="602" width="360" height="3" fill="#000" opacity=".35"/><rect x="290" y="610" width="360" height="3" fill="#000" opacity=".35"/><rect x="290" y="618" width="360" height="3" fill="#000" opacity=".35"/><rect x="290" y="626" width="360" height="3" fill="#000" opacity=".35"/><ellipse cx="420" cy="380" rx="150" ry="50" fill="#fff" opacity=".08"/></g><rect x="290" y="330" width="360" height="300" rx="60" fill="none" stroke="#fff" stroke-opacity=".35" stroke-width="3"/><circle cx="718" cy="400" r="26" fill="#fff" opacity=".55"/><circle cx="718" cy="480" r="26" fill="#fff" opacity=".35"/><rect x="700" y="548" width="36" height="6" rx="3" fill="#fff" opacity=".4"/><rect x="700" y="566" width="36" height="6" rx="3" fill="#fff" opacity=".4"/><rect x="700" y="584" width="36" height="6" rx="3" fill="#fff" opacity=".4"/><rect x="700" y="602" width="36" height="6" rx="3" fill="#fff" opacity=".4"/><path d="M320 696l-24 56h72l12-56zM704 696l24 56h-72l-12-56z" fill="#fff" opacity=".35"/><path d="M244 372q0-88 88-88h360q88 0 88 88v20C620 330 400 330 244 440z" fill="url(#sheen)" opacity=".85"/></g></g>
<rect x="100" y="100" width="824" height="824" rx="185" fill="none" stroke="url(#rim)" stroke-width="3"/>
<path d="M285 100h454a185 185 0 0 1 185 185v40C700 250 324 250 100 325v-40A185 185 0 0 1 285 100z" fill="url(#sheen)" opacity=".5"/>
</svg>